<svg preserveAspectRatio="none" overflow="visible" style="display: block;" width="90" height="90" viewBox="0 0 90 90" fill="none" xmlns="http://www.w3.org/2000/svg">
<g id="ant-design:pie-chart-filled">
<path id="Vector" d="M75.8584 45.5713H44.4287V14.1416C44.4287 13.7549 44.1123 13.4385 43.7256 13.4385H41.4404C36.8287 13.4338 32.2613 14.3397 28.0005 16.1044C23.7397 17.869 19.8693 20.4576 16.6113 23.7217C13.4037 26.9195 10.8484 30.7106 9.08789 34.8838C7.25977 39.2168 6.32812 43.8135 6.32812 48.5596C6.32812 53.3057 7.25977 57.8936 9.08789 62.2266C10.8545 66.4014 13.3857 70.1631 16.6113 73.3887C19.8369 76.6143 23.5898 79.1455 27.7734 80.9121C32.0988 82.7472 36.7506 83.689 41.4492 83.6807C46.061 83.6854 50.6283 82.7794 54.8891 81.0148C59.1499 79.2501 63.0203 76.6615 66.2783 73.3975C69.5039 70.1719 72.0352 66.4189 73.8018 62.2354C75.6369 57.9099 76.5786 53.2582 76.5703 48.5596V46.2744C76.5615 45.8877 76.2451 45.5713 75.8584 45.5713ZM83.584 40.6934L83.3555 38.2148C82.6084 30.1289 79.0225 22.5 73.2393 16.7432C67.4614 10.9702 59.8477 7.39804 51.7148 6.64453L49.2275 6.41602C48.8145 6.38086 48.4629 6.69727 48.4629 7.11035V40.834C48.4629 41.2207 48.7793 41.5371 49.166 41.5371L82.8809 41.4492C83.2939 41.4404 83.6191 41.0977 83.584 40.6934Z" fill="#1A5A81"/>
</g>
</svg>
