<svg preserveAspectRatio="none" overflow="visible" style="display: block;" width="25.7222" height="20.525" viewBox="0 0 25.7222 20.525" fill="none" xmlns="http://www.w3.org/2000/svg">
<g id="Frame 1000009137">
<path id="Rectangle 39614" d="M3.29081 1.33669C3.39664 1.1045 3.65564 0.983802 3.9015 1.0521L4.40804 1.1928L1.33645 8.05268C1.31401 8.10281 1.33453 8.16174 1.38325 8.18708L12.8131 14.1327C12.8432 14.1483 12.879 14.1483 12.909 14.1326L24.2879 8.18688C24.3363 8.1616 24.3568 8.10313 24.3348 8.05316L21.3142 1.1928L21.7109 1.06882C21.9588 0.991342 22.2259 1.10925 22.3356 1.34468L25.5963 8.33865C25.6667 8.48964 25.6057 8.66929 25.4579 8.74617L13.3379 15.0505C13.0389 15.2061 12.683 15.2066 12.3836 15.0521L6.43055 11.9795L0.258287 8.6943C0.113142 8.61704 0.0531568 8.4402 0.121349 8.29058L3.29081 1.33669Z" fill="white"/>
<path id="Rectangle 39615" d="M21.7811 6.22313L19.6549 0.985336C19.6549 0.985336 17.5287 1.50393 15.7654 2.38554C14.0022 3.26715 13.3091 4.77107 13.3091 4.77107V11.0979L12.8613 11.7202V3.8376C12.8613 3.8376 14.0022 2.1781 15.7654 1.50393C17.5287 0.829758 19.3956 0.207446 19.3956 0.207446L20.0698 8.58307e-06L22.8702 6.68986C22.8702 6.68986 20.6402 7.20845 17.5287 8.60866C14.4171 10.0089 12.8613 13.3797 12.8613 13.3797V11.7202C12.8613 11.7202 14.6245 8.91981 17.5287 7.72705C20.4328 6.53428 21.7811 6.22313 21.7811 6.22313Z" fill="#CAB178"/>
<path id="Rectangle 39616" d="M3.88952 6.22313L6.01576 0.985336C6.01576 0.985336 8.14199 1.50393 9.9052 2.38554C11.6684 3.26715 12.3616 4.77107 12.3616 4.77107V11.0979L12.8093 11.7202V3.8376C12.8093 3.8376 11.6684 2.1781 9.9052 1.50393C8.14199 0.829758 6.27505 0.207446 6.27505 0.207446L5.60088 8.58307e-06L2.80048 6.68986C2.80048 6.68986 5.03043 7.20845 8.14199 8.60866C11.2535 10.0089 12.8093 13.3797 12.8093 13.3797V11.7202C12.8093 11.7202 11.0461 8.91981 8.14199 7.72705C5.23787 6.53428 3.88952 6.22313 3.88952 6.22313Z" fill="#CAB178"/>
<path id="Rectangle 39621" d="M7.41598 13.0686L11.9979 15.4919C12.0345 15.5112 12.0348 15.5635 11.9984 15.5833L9.28292 17.0617L4.66115 19.4996C4.62235 19.5201 4.57762 19.4868 4.58744 19.444C4.65921 19.1313 4.88756 18.2142 5.18603 17.7878C5.54905 17.2692 6.89739 16.5431 7.46784 15.8171C8.03829 15.0911 8.24573 14.7281 7.98644 14.4688C7.72714 14.2095 6.01578 15.2467 6.01578 15.1429C6.01578 15.0392 5.92243 14.4169 6.20248 14.002C6.48252 13.5872 7.41598 13.0686 7.41598 13.0686Z" fill="white"/>
<g id="&#216;&#173;">
<path fill-rule="evenodd" clip-rule="evenodd" d="M5.32467 19.7469C5.25563 19.7833 5.2618 19.8836 5.33528 19.9099C6.46044 20.3126 7.74383 20.524 9.21148 20.524C10.5688 20.5405 11.9344 20.3501 13.3082 19.9529C14.6233 19.5638 15.8477 19.026 16.9814 18.3395C17.0407 18.3036 17.0387 18.2172 16.9781 18.1836L14.2533 16.6706C14.2303 16.6578 14.2029 16.6557 14.1782 16.6645C13.368 16.9551 12.5649 17.1492 11.7689 17.2466C11.0657 17.3364 10.4171 17.3841 9.80991 17.3924C9.79552 17.3926 9.78141 17.3962 9.76868 17.4029L5.32467 19.7469Z" fill="white"/>
</g>
<path id="&#216;&#173;_2" fill-rule="evenodd" clip-rule="evenodd" d="M21.1098 14.7233C20.8306 15.0663 20.5936 15.3332 20.2453 15.708C20.0002 15.9716 19.7174 16.3704 19.6045 16.3704C19.4915 16.3704 19.0623 15.9267 19.0623 15.9267C19.0623 15.9267 18.2664 15.1764 18.3121 15.1079C18.3578 15.0395 19.1957 15.5817 19.4422 15.631C19.6887 15.6803 19.8366 15.631 19.8366 15.631C19.8366 15.631 20.0741 15.5029 20.1323 15.3352C20.1702 15.2261 20.1655 15.1558 20.1753 15.0395C20.1964 14.7899 20.1884 14.6457 20.1467 14.3987C20.1202 14.2422 20.1467 14.2508 20.0481 14.0044C19.9495 13.7579 19.6045 13.3636 19.6045 13.3636L21.1098 14.7233Z" fill="white"/>
<path id="&#216;&#173;_3" fill-rule="evenodd" clip-rule="evenodd" d="M19.5959 13.3796C20.3791 12.7444 21.3856 11.9312 21.3916 11.9263C21.3916 11.9263 21.8457 11.6993 22.5267 11.0183L23.4346 10.1103C23.4348 10.1175 23.4522 11.135 22.743 12.3555C22.2338 13.2103 21.6845 13.9996 21.0953 14.7233L19.5959 13.3796Z" fill="white"/>
<path id="Rectangle 39619" d="M18.2547 13.0686L13.6728 15.4919C13.6362 15.5112 13.6359 15.5635 13.6722 15.5833L16.3877 17.0617L21.0095 19.4996C21.0483 19.5201 21.093 19.4868 21.0832 19.444C21.0114 19.1313 20.7831 18.2142 20.4846 17.7878C20.1216 17.2692 18.7733 16.5431 18.2028 15.8171C17.6324 15.0911 17.4249 14.7281 17.6842 14.4688C17.9435 14.2095 19.6211 15.2464 19.6549 15.1429C19.6887 15.0395 19.7482 14.4169 19.4682 14.002C19.1881 13.5872 18.2547 13.0686 18.2547 13.0686Z" fill="white"/>
<path id="Rectangle 39622" d="M2.58012 7.74691C2.58012 7.74691 4.95664 8.26355 8.15978 9.65846C11.3629 11.0534 12.7837 13.8949 12.7837 13.8949C12.7837 13.8949 14.2044 11.0534 17.4075 9.65846C20.6107 8.26355 23.0565 7.74691 23.0565 7.74691L23.3489 8.41854L12.7837 13.8949L2.27014 8.41854L2.58012 7.74691Z" fill="#CAB178"/>
</g>
</svg>
