<svg preserveAspectRatio="none" overflow="visible" style="display: block;" width="129.061" height="110.085" viewBox="0 0 129.061 110.085" fill="none" xmlns="http://www.w3.org/2000/svg">
<g id="Frame 1000009141">
<g id="Frame 1000009036">
<path id="&#216;&#167;" d="M84.1212 23.6304C84.1212 23.6304 83.8545 23.6304 82.209 24.0766C80.5636 24.5228 79.9782 24.8579 79.9782 24.8579C79.4499 19.8023 78.8396 14.0143 78.2246 8.41419L77.4287 6.65176L80.7261 0C81.1809 1.02335 81.92 2.76683 82.9434 5.23044C86.2408 13.4172 87.9085 18.0791 87.9464 19.2162C87.8327 19.4057 87.7758 19.5194 87.7758 19.5573C87.0936 19.4436 85.8049 18.1928 83.9099 15.805L83.3982 15.6913L83.1708 16.0324C83.5062 18.7777 83.816 21.0528 84.1212 23.6304Z" fill="#CAB178"/>
<path id="&#216;&#167;_2" d="M80.4383 90.71L84.9515 94.1614C84.548 98.2788 83.6317 102.761 82.2026 107.607C81.7367 109.005 81.4403 109.831 81.3132 110.085H81.0591C80.6356 109.873 80.4239 109.365 80.4239 108.56L80.7415 100.683C80.7332 97.9405 80.6321 94.6161 80.4383 90.71Z" fill="#CAB178"/>
</g>
<g id="&#217;&#129;&#216;&#184;">
<path d="M61.9847 76.9906L64.7299 76.8943C66.9454 76.8943 68.7434 77.5525 70.1241 78.8689C70.2846 79.0616 70.381 79.3666 70.4131 79.784C69.3214 81.4857 64.9226 83.6691 57.2166 86.334C56.9598 86.4304 56.6387 86.6391 56.2534 86.9601C54.9691 88.0197 54.3269 89.304 54.3269 90.8131C54.359 91.6158 54.7283 92.0653 55.4346 92.1617C62.659 89.8178 67.5715 87.217 70.1723 84.3594L70.3167 84.2149C71.569 82.9627 72.1951 80.6188 72.1951 77.1832C72.2272 72.5276 70.5736 68.3856 67.2344 64.7574C65.95 63.3767 64.4731 62.6062 62.8034 62.4456C60.877 62.2851 59.1271 63.5212 57.5538 66.1541C56.6226 67.6632 56.0929 69.3328 55.9644 71.163C55.7718 74.727 57.6019 76.6695 61.4549 76.9906H61.9847ZM61.5512 68.514C62.6429 68.514 64.0878 69.4612 65.8858 71.3556C65.629 71.3556 65.2116 71.3717 64.6336 71.4038C64.0878 71.4359 63.3653 71.4519 62.4663 71.4519C60.4435 71.3877 59.1752 70.8579 58.6615 69.8626C59.4 68.9957 60.3472 68.5461 61.5031 68.514H61.5512Z" fill="white"/>
<path d="M65.0671 52.0426L61.5512 57.0033L55.7236 52.5724L59.1431 47.6117L65.0671 52.0426Z" fill="white"/>
<path d="M20.9987 81.5041L20.9024 86.8019V87.2354C20.0355 88.4555 19.1364 89.7398 18.2053 91.0883C15.3477 91.5057 9.27924 91.4094 0 90.7994L2.31178 92.1961C7.19221 95.0858 10.5315 96.5307 12.3295 96.5307H13.8225L18.0126 96.2898L19.4575 96.1935L28.0304 95.8082C41.4516 95.0055 50.6024 93.7694 55.4828 92.0997C55.7397 92.0355 56.0929 91.8429 56.5424 91.5218C57.923 90.6549 58.6133 89.3545 58.6133 87.6207C58.5491 86.818 58.228 86.3684 57.6501 86.2721H57.313C52.272 87.8133 48.5796 88.7926 46.2357 89.21C47.3916 88.6321 48.3066 88.0541 48.9809 87.4762C51.1964 85.5176 52.4165 82.6439 52.6412 78.8551C52.7054 77.1534 52.1436 75.4677 50.9556 73.7981C48.997 71.0689 46.2357 69.7043 42.6717 69.7043C40.2957 69.7364 38.0642 70.491 35.9771 71.968C31.6104 75.0182 27.035 79.5134 22.2509 85.4534C23.6637 80.3161 24.3861 76.0296 24.4182 72.5941C24.4824 63.9891 23.1339 49.4762 20.3726 29.0555H20.4689C20.6295 29.0555 20.7418 29.0876 20.806 29.1518C22.7968 31.0783 23.8884 32.17 24.0811 32.4268L24.2256 32.1379V32.0415C24.1935 31.303 23.471 29.0876 22.0583 25.3952C20.6455 21.6706 19.3291 18.4759 18.109 15.8109L15.3156 21.4459L16.0862 23.0352C19.3612 53.0242 20.9987 72.5138 20.9987 81.5041ZM44.261 85.3089C37.0046 88.6481 29.0739 90.5104 20.4689 90.8957H19.7946C20.2442 90.3177 20.7097 89.7398 21.1913 89.1618C28.9936 79.9468 35.7203 75.3393 41.3713 75.3393C41.6924 75.3393 42.2543 75.4035 43.057 75.532C46.5246 76.3025 48.997 78.2611 50.4739 81.4077C49.1254 82.6921 47.0544 83.9924 44.261 85.3089Z" fill="white"/>
<path d="M43.1533 52.9921L39.7819 57.9046L33.8098 53.6182L37.1812 48.6093L43.1533 52.9921Z" fill="white"/>
</g>
<g id="&#216;&#173;">
<path fill-rule="evenodd" clip-rule="evenodd" d="M94.7555 30.8788C98.3598 30.848 102.644 31.1571 107.608 31.8061C107.785 31.8293 107.819 32.072 107.655 32.1434C100.635 35.2026 94.853 38.7243 90.31 42.7087C90.2376 42.7721 90.1283 42.7659 90.0621 42.696C88.7241 41.2815 86.3874 39.6703 83.0521 37.8623C79.6487 36.0001 77.4653 34.5873 76.502 33.624C78.7496 32.1471 82.426 31.2641 87.5312 30.9751C88.6229 30.943 91.031 30.9109 94.7555 30.8788ZM89.9764 43.9104C90.0402 43.954 90.1249 43.9509 90.1854 43.9028L93.9172 40.9346C93.9262 40.9275 93.9358 40.9213 93.9459 40.916L107.571 33.8654C107.593 33.8541 107.612 33.8384 107.627 33.8194L109.779 31.1463C109.869 31.0345 109.795 30.8678 109.651 30.86L87.4587 29.6425C87.4429 29.6416 87.427 29.6429 87.4114 29.6463L76.6405 32.0013C76.5597 32.019 76.502 32.0906 76.502 32.1734V33.624V34.5218C76.502 34.5791 76.5299 34.6328 76.5768 34.6658L81.1181 37.8623L89.9764 43.9104Z" fill="white"/>
<path fill-rule="evenodd" clip-rule="evenodd" d="M94.7555 30.8788C98.3598 30.848 102.644 31.1571 107.608 31.8061C107.785 31.8293 107.819 32.072 107.655 32.1434C100.635 35.2026 94.853 38.7243 90.31 42.7087C90.2376 42.7721 90.1283 42.7659 90.0621 42.696C88.7241 41.2815 86.3874 39.6703 83.0521 37.8623C79.6487 36.0001 77.4653 34.5873 76.502 33.624C78.7496 32.1471 82.426 31.2641 87.5312 30.9751C88.6229 30.943 91.031 30.9109 94.7555 30.8788ZM89.9764 43.9104C90.0402 43.954 90.1249 43.9509 90.1854 43.9028L93.9172 40.9346C93.9262 40.9275 93.9358 40.9213 93.9459 40.916L107.571 33.8654C107.593 33.8541 107.612 33.8384 107.627 33.8194L109.779 31.1463C109.869 31.0345 109.795 30.8678 109.651 30.86L87.4587 29.6425C87.4429 29.6416 87.427 29.6429 87.4114 29.6463L76.6405 32.0013C76.5597 32.019 76.502 32.0906 76.502 32.1734V33.624V34.5218C76.502 34.5791 76.5299 34.6328 76.5768 34.6658L81.1181 37.8623L89.9764 43.9104Z" fill="white"/>
<path fill-rule="evenodd" clip-rule="evenodd" d="M90.0357 25.003C98.3517 25.003 106.764 25.597 115.273 26.785L119.312 27.3818C119.417 27.3973 119.485 27.5022 119.455 27.6046L117.765 33.4964C117.744 33.572 117.675 33.624 117.596 33.624H117.574C117.549 33.624 117.524 33.6296 117.501 33.6401C105.258 39.2374 96.8785 43.4474 92.3609 46.27C92.2946 46.3114 92.2658 46.3905 92.2868 46.4658C92.6804 47.8766 92.8771 48.8939 92.8771 49.5175C92.9092 50.1596 92.9092 50.6252 92.8771 50.9142C92.8598 51.0703 92.6047 51.1202 92.5313 50.9813C91.9567 49.8937 91.1778 48.8491 90.1947 47.8475C90.1318 47.7835 90.0335 47.7754 89.9647 47.8329C87.9394 49.5251 82.5806 55.6226 82.5705 55.6341C82.5705 55.6341 79.4399 59.0056 78.284 67.8124C77.1282 76.6191 80.854 84.3352 86.6335 87.7066C87.5675 88.2345 89.6138 89.0496 89.6138 89.0496C89.6138 89.0496 89.0543 89.4972 88.6175 89.9752C88.1807 90.4533 87.8789 91.2154 87.5658 92.0788C87.3933 92.5542 87.2024 93.3218 87.2024 93.3218C87.2024 93.3218 87.0637 93.7243 87.0647 93.9911C87.0652 94.1137 87.0954 94.2864 87.1099 94.3625C87.1129 94.3782 87.0965 94.3906 87.0822 94.3835C82.641 92.1637 79.635 88.1762 77.5135 82.8459C76.9631 81.4629 75.587 77.0594 75.587 73.977C75.6512 66.9133 76.6397 59.6867 79.6051 54.6022C82.4855 49.6633 85.552 47.4162 87.285 45.6731C87.3633 45.5943 87.3478 45.4642 87.253 45.4064C86.2802 44.8138 84.334 43.8403 81.4145 42.4859C78.3322 41.009 76.3897 39.7728 75.587 38.7774C74.72 37.6215 74.2866 36.1446 74.2866 34.3466C74.2866 33.7365 74.3348 33.0782 74.4312 32.3719L74.8129 30.606C74.8153 30.5953 74.8186 30.5847 74.8229 30.5747C75.6913 28.5278 77.2945 27.0879 79.6325 26.2552C81.9764 25.4204 85.4442 25.003 90.0357 25.003ZM94.7555 30.8788C91.031 30.9109 88.6229 30.943 87.5312 30.9751C82.426 31.2641 78.7496 32.1471 76.502 33.624C77.4653 34.5873 79.6487 36.0001 83.0521 37.8623C86.3874 39.6703 88.7241 41.2815 90.0621 42.696C90.1283 42.7659 90.2376 42.7721 90.31 42.7087C94.853 38.7243 100.635 35.2026 107.655 32.1434C107.819 32.072 107.785 31.8293 107.608 31.8061C102.644 31.1571 98.3598 30.848 94.7555 30.8788Z" fill="white"/>
</g>
<g id="Frame 1000009137">
<path id="Rectangle 39614" d="M85.5483 58.9004C85.7536 58.45 86.256 58.2159 86.7329 58.3484L87.7155 58.6213L81.7572 71.9282C81.7137 72.0254 81.7535 72.1397 81.848 72.1889L104.02 83.7222C104.078 83.7525 104.148 83.7525 104.206 83.722L126.279 72.1885C126.372 72.1394 126.412 72.026 126.37 71.9291L120.51 58.6213L121.28 58.3808C121.761 58.2305 122.279 58.4592 122.492 58.9159L128.817 72.4829C128.953 72.7758 128.835 73.1243 128.548 73.2734L105.038 85.5027C104.458 85.8043 103.767 85.8054 103.186 85.5056L91.6388 79.5455L79.6658 73.1728C79.3842 73.0229 79.2679 72.6799 79.4001 72.3896L85.5483 58.9004Z" fill="white"/>
<path id="Rectangle 39615" d="M121.416 68.3792L117.291 58.2188C117.291 58.2188 113.167 59.2248 109.746 60.935C106.326 62.6451 104.981 65.5624 104.981 65.5624V77.8353L104.113 79.0425V63.7517C104.113 63.7517 106.326 60.5326 109.746 59.2248C113.167 57.9171 116.788 56.7099 116.788 56.7099L118.096 56.3075L123.528 69.2845C123.528 69.2845 119.202 70.2905 113.167 73.0066C107.131 75.7228 104.113 82.2616 104.113 82.2616V79.0425C104.113 79.0425 107.533 73.6102 113.167 71.2965C118.8 68.9827 121.416 68.3792 121.416 68.3792Z" fill="#CAB178"/>
<path id="Rectangle 39616" d="M86.7094 68.3792L90.8339 58.2188C90.8339 58.2188 94.9583 59.2248 98.3786 60.935C101.799 62.6451 103.144 65.5624 103.144 65.5624V77.8353L104.012 79.0425V63.7517C104.012 63.7517 101.799 60.5326 98.3786 59.2248C94.9583 57.9171 91.3368 56.7099 91.3368 56.7099L90.0291 56.3075L84.5968 69.2845C84.5968 69.2845 88.9225 70.2905 94.9583 73.0066C100.994 75.7228 104.012 82.2616 104.012 82.2616V79.0425C104.012 79.0425 100.592 73.6102 94.9583 71.2965C89.3249 68.9827 86.7094 68.3792 86.7094 68.3792Z" fill="#CAB178"/>
<path id="Rectangle 39621" d="M93.5502 81.658L102.438 86.3588C102.509 86.3963 102.51 86.4977 102.439 86.5361L97.1717 89.404L88.2063 94.133C88.131 94.1727 88.0443 94.1081 88.0633 94.0252C88.2025 93.4186 88.6455 91.6395 89.2245 90.8124C89.9287 89.8064 92.5442 88.398 93.6508 86.9897C94.7573 85.5813 95.1597 84.8771 94.6567 84.3742C94.1537 83.8712 90.834 85.8831 90.834 85.6819C90.834 85.4807 90.653 84.2736 91.1962 83.4688C91.7394 82.664 93.5502 81.658 93.5502 81.658Z" fill="white"/>
<g id="&#216;&#173;_2">
<path fill-rule="evenodd" clip-rule="evenodd" d="M89.4935 94.6127C89.3596 94.6834 89.3715 94.878 89.5141 94.929C91.6966 95.7101 94.1862 96.1201 97.0331 96.1201C99.666 96.1522 102.315 95.7829 104.98 95.0123C107.531 94.2576 109.906 93.2144 112.105 91.8826C112.22 91.813 112.216 91.6455 112.099 91.5802L106.813 88.6453C106.769 88.6206 106.716 88.6164 106.668 88.6336C105.096 89.1973 103.538 89.5736 101.994 89.7627C100.63 89.9369 99.3717 90.0293 98.194 90.0455C98.1661 90.0459 98.1387 90.0528 98.114 90.0658L89.4935 94.6127Z" fill="white"/>
</g>
<path id="&#216;&#173;_3" fill-rule="evenodd" clip-rule="evenodd" d="M120.113 84.8679C119.572 85.5332 119.112 86.0509 118.436 86.7779C117.961 87.2893 117.413 88.0629 117.193 88.0629C116.974 88.0629 116.142 87.2023 116.142 87.2023C116.142 87.2023 114.598 85.7468 114.686 85.614C114.775 85.4812 116.4 86.533 116.879 86.6286C117.357 86.7242 117.644 86.6286 117.644 86.6286C117.644 86.6286 118.104 86.3801 118.217 86.0549C118.291 85.8433 118.282 85.7068 118.301 85.4812C118.342 84.997 118.326 84.7173 118.245 84.2382C118.194 83.9346 118.245 83.9514 118.054 83.4733C117.863 82.9952 117.193 82.2303 117.193 82.2303L120.113 84.8679Z" fill="white"/>
<path id="&#216;&#173;_4" fill-rule="evenodd" clip-rule="evenodd" d="M117.177 82.2614C118.696 81.0293 120.648 79.4518 120.66 79.4423C120.66 79.4423 121.541 79.0019 122.862 77.6809L124.623 75.9196C124.624 75.9336 124.657 77.9073 123.282 80.2749C122.294 81.9331 121.228 83.4641 120.085 84.868L117.177 82.2614Z" fill="white"/>
<path id="Rectangle 39619" d="M114.575 81.658L105.687 86.3588C105.616 86.3963 105.615 86.4977 105.686 86.5361L110.954 89.404L119.919 94.133C119.994 94.1727 120.081 94.1081 120.062 94.0252C119.923 93.4186 119.48 91.6395 118.901 90.8124C118.197 89.8064 115.581 88.398 114.474 86.9897C113.368 85.5813 112.966 84.8771 113.469 84.3742C113.971 83.8712 117.226 85.8826 117.291 85.6819C117.357 85.4812 117.472 84.2736 116.929 83.4688C116.386 82.664 114.575 81.658 114.575 81.658Z" fill="white"/>
<path id="Rectangle 39622" d="M84.1698 71.3351C84.1698 71.3351 88.7798 72.3373 94.9933 75.0431C101.207 77.749 103.963 83.261 103.963 83.261C103.963 83.261 106.719 77.749 112.932 75.0431C119.146 72.3373 123.89 71.3351 123.89 71.3351L124.457 72.6379L103.963 83.261L83.5685 72.6379L84.1698 71.3351Z" fill="#CAB178"/>
</g>
</g>
</svg>
